<?xml version="1.0" encoding="UTF-8" standalone="no" ?>
<!DOCTYPE svg PUBLIC "-//W3C//DTD SVG 1.1//EN" "http://www.w3.org/Graphics/SVG/1.1/DTD/svg11.dtd">
<svg xmlns="http://www.w3.org/2000/svg" xmlns:xlink="http://www.w3.org/1999/xlink" version="1.1" width="500" height="500" viewBox="0 0 500 500" xml:space="preserve">
<desc>Created with Fabric.js 5.3.0</desc>
<defs>
</defs>
<g transform="matrix(4.1323893632 0 0 3.0450845551 235.8312198093 222.9771752406)" id="TETkZov60R8dFBu0WVV1b"  >
<path style="stroke: rgb(0,0,0); stroke-width: 3; stroke-dasharray: none; stroke-linecap: butt; stroke-dashoffset: 0; stroke-linejoin: miter; stroke-miterlimit: 4; fill: rgb(255,255,255); fill-opacity: 0; fill-rule: nonzero; opacity: 1;" vector-effect="non-scaling-stroke"  transform=" translate(0, 0)" d="M -54.62963 -59.01235 C -54.62963 -34.56791 -54.62963 69.87654 -54.62963 69.87654 L 54.62963 69.87654 L 54.62963 -59.01235 C 54.62963 -59.01235 -54.62963 -83.45679 -54.62963 -59.01235 z" stroke-linecap="round" />
</g>
<g transform="matrix(4.9699373539 0 0 4.9699373539 257.3127012908 69.1209752823)" id="F1DTnK9XN3-wSwgHhgGW5"  >
<path style="stroke: rgb(0,0,0); stroke-width: 2; stroke-dasharray: none; stroke-linecap: butt; stroke-dashoffset: 0; stroke-linejoin: miter; stroke-miterlimit: 4; fill: rgb(255,255,255); fill-opacity: 0; fill-rule: nonzero; opacity: 1;" vector-effect="non-scaling-stroke"  transform=" translate(0, 0)" d="M -19.62963 -11.85604 L -19.62963 11.85604 L 19.62963 11.85604 L 19.62963 -8.14396" stroke-linecap="round" />
</g>
<g transform="matrix(4.9699373539 0 0 4.9699373539 230.3090671938 230.50588547)" id="oZL_sHd6uZR9cNngYDl-_"  >
<path style="stroke: rgb(0,0,0); stroke-width: 2; stroke-dasharray: none; stroke-linecap: butt; stroke-dashoffset: 0; stroke-linejoin: miter; stroke-miterlimit: 4; fill: rgb(255,255,255); fill-opacity: 0; fill-rule: nonzero; opacity: 1;" vector-effect="non-scaling-stroke"  transform=" translate(0, 0)" d="M -34.81481 0 C -34.07407 0 34.814820000000005 0 34.814820000000005 0" stroke-linecap="round" />
</g>
</svg>