<?xml version="1.0" encoding="UTF-8" standalone="no" ?>
<!DOCTYPE svg PUBLIC "-//W3C//DTD SVG 1.1//EN" "http://www.w3.org/Graphics/SVG/1.1/DTD/svg11.dtd">
<svg xmlns="http://www.w3.org/2000/svg" xmlns:xlink="http://www.w3.org/1999/xlink" version="1.1" width="500" height="500" viewBox="0 0 500 500" xml:space="preserve">
<desc>Created with Fabric.js 5.3.0</desc>
<defs>
</defs>
<g transform="matrix(1.7918169744 0 0 1.7918169744 341.5162379011 213.938289721)" id="otAeYk9aHddUmHbr-Us50"  >
<path style="stroke: rgb(0,0,0); stroke-width: 1; stroke-dasharray: none; stroke-linecap: butt; stroke-dashoffset: 0; stroke-linejoin: miter; stroke-miterlimit: 4; fill: rgb(255,255,255); fill-opacity: 0; fill-rule: nonzero; opacity: 1;" vector-effect="non-scaling-stroke"  transform=" translate(0, 0)" d="M -25.92593 -61.48148 C 11.851849999999999 -16.29629 25.925919999999998 2.22222 25.925919999999998 2.22222 L -25.92593 61.48148" stroke-linecap="round" />
</g>
<g transform="matrix(1.9457225408 0 0 1.9846072771 266.3516030973 213.938289721)" id="ujub0QfOkVCYw7A3BTYFp"  >
<path style="stroke: rgb(0,0,0); stroke-width: 1; stroke-dasharray: none; stroke-linecap: butt; stroke-dashoffset: 0; stroke-linejoin: miter; stroke-miterlimit: 4; fill: rgb(255,255,255); fill-opacity: 0; fill-rule: nonzero; opacity: 1;" vector-effect="non-scaling-stroke"  transform=" translate(0, 0)" d="M -13.02623 -58.48095 L 17.125410000000002 -17.906370000000003 C 22.155890000000003 -11.136930000000003 -14.906500000000001 -5.702910000000003 -15.48225 2.653559999999999 C -16.05543 10.972739999999998 20.051789999999997 19.758879999999998 14.183869999999999 25.794449999999998 L -17.59466 58.48094" stroke-linecap="round" />
</g>
<g transform="matrix(1 0 0 1 303.6913533791 185.1851851852)" id="gEwMes2tBJtiD-bWOUvRi"  >
<path style="stroke: rgb(0,0,0); stroke-width: 1; stroke-dasharray: none; stroke-linecap: butt; stroke-dashoffset: 0; stroke-linejoin: miter; stroke-miterlimit: 4; fill: rgb(255,255,255); fill-opacity: 0; fill-rule: nonzero; opacity: 1;" vector-effect="non-scaling-stroke"  transform=" translate(0, 0)" d="M 0 0 z" stroke-linecap="round" />
</g>
<g transform="matrix(1.032007249 0 0 1.032007249 181.8670221373 280.1429180431)" id="4XaGwpw37gmacEJpt5lah"  >
<path style="stroke: rgb(0,0,0); stroke-width: 1; stroke-dasharray: none; stroke-linecap: butt; stroke-dashoffset: 0; stroke-linejoin: miter; stroke-miterlimit: 4; fill: rgb(255,255,255); fill-opacity: 0; fill-rule: nonzero; opacity: 1;" vector-effect="non-scaling-stroke"  transform=" translate(0, 0)" d="M 110.29278 -102.15303 C 89.73281999999999 -115.35667000000001 -15.474030000000013 -106.41528 -40.49934000000002 -102.15303 C -113.75059000000002 -89.67705000000001 -111.05220000000001 -19.55561 -109.94796000000002 109.08770999999999" stroke-linecap="round" />
</g>
<g transform="matrix(1.0251781943 0 0 1.0251781943 226.0856897027 317.6384592913)" id="p-paCZL5VeUGcYSQgtAHS"  >
<path style="stroke: rgb(0,0,0); stroke-width: 2; stroke-dasharray: none; stroke-linecap: butt; stroke-dashoffset: 0; stroke-linejoin: miter; stroke-miterlimit: 4; fill: rgb(255,255,255); fill-opacity: 0; fill-rule: nonzero; opacity: 1;" vector-effect="non-scaling-stroke"  transform=" translate(0, 0)" d="M 65.18519 -62.16667 L -22.838319999999996 -62.16667 C -46.225849999999994 -62.16667 -65.18518 -43.20733 -65.18518 -19.819810000000004 L -65.18518 62.16665999999999" stroke-linecap="round" />
</g>
<g transform="matrix(1 0 0 1 113.4030943078 378.3425925926)" id="pr3M8_bmS-8-aRHrsb_Jr"  >
<path style="stroke: rgb(0,0,0); stroke-width: 2; stroke-dasharray: none; stroke-linecap: butt; stroke-dashoffset: 0; stroke-linejoin: miter; stroke-miterlimit: 4; fill: rgb(255,255,255); fill-opacity: 0; fill-rule: nonzero; opacity: 1;" vector-effect="non-scaling-stroke"  transform=" translate(0, 0)" d="M -45.35902 3.52778 C 47.23357 3.52778 45.35616 -3.52778 45.35616 -3.52778" stroke-linecap="round" />
</g>
</svg>