<?xml version="1.0" encoding="UTF-8" standalone="no" ?>
<!DOCTYPE svg PUBLIC "-//W3C//DTD SVG 1.1//EN" "http://www.w3.org/Graphics/SVG/1.1/DTD/svg11.dtd">
<svg xmlns="http://www.w3.org/2000/svg" xmlns:xlink="http://www.w3.org/1999/xlink" version="1.1" width="500" height="500" viewBox="0 0 500 500" xml:space="preserve">
<desc>Created with Fabric.js 5.3.0</desc>
<defs>
</defs>
<g transform="matrix(1.0864272871 0 0 1.492292903 250 250)" id="rZ_GxRKpQF1EG1Y3Fa9ga"  >
<path style="stroke: rgb(0,0,0); stroke-width: 6; stroke-dasharray: none; stroke-linecap: butt; stroke-dashoffset: 0; stroke-linejoin: miter; stroke-miterlimit: 4; fill: none; fill-rule: nonzero; opacity: 1;" vector-effect="non-scaling-stroke"  transform=" translate(0, 0)" d="M -120.74074 -120.74074 L 120.74074 -120.74074 L 120.74074 120.74074 L -120.74074 120.74074 z" stroke-linecap="round" />
</g>
<g transform="matrix(1 0 0 1 247.7777777778 69.3194482275)" id="aCR8wBq-Y_Z07SDicIUON"  >
<path style="stroke: rgb(0,0,0); stroke-width: 1; stroke-dasharray: none; stroke-linecap: butt; stroke-dashoffset: 0; stroke-linejoin: miter; stroke-miterlimit: 4; fill: rgb(255,255,255); fill-opacity: 0; fill-rule: nonzero; opacity: 1;" vector-effect="non-scaling-stroke"  transform=" translate(0, 0)" d="M -163.33333 0 C -162.59259 0 163.33334000000002 0 163.33334000000002 0" stroke-linecap="round" />
</g>
<g transform="matrix(4.4235 0 0 0.2025625511 247.7777777778 62.3171315211)" id="4PvQdtKI14I2CSOsFQWDt"  >
<path style="stroke: rgb(0,0,0); stroke-width: 0; stroke-dasharray: none; stroke-linecap: butt; stroke-dashoffset: 0; stroke-linejoin: miter; stroke-miterlimit: 4; fill: rgb(0,0,0); fill-rule: nonzero; opacity: 1;" vector-effect="non-scaling-stroke"  transform=" translate(0, 0)" d="M -37.03704 -37.03704 L 37.03703000000001 -37.03704 L 37.03703000000001 37.03703000000001 L -37.03704 37.03703000000001 z" stroke-linecap="round" />
</g>
<g transform="matrix(0.2030456907 0 0 1.926395899 181.4814806573 246.1111099853)" id="OSQIZIY5yI6daNHsyxdz0"  >
<path style="stroke: rgb(0,0,0); stroke-width: 0; stroke-dasharray: none; stroke-linecap: butt; stroke-dashoffset: 0; stroke-linejoin: miter; stroke-miterlimit: 4; fill: rgb(0,0,0); fill-rule: nonzero; opacity: 1;" vector-effect="non-scaling-stroke"  transform=" translate(0, 0)" d="M -72.96297 -72.96297 L 72.96296 -72.96297 L 72.96296 72.96296 L -72.96297 72.96296 z" stroke-linecap="round" />
</g>
<g transform="matrix(0.2030456907 0 0 1.926395899 247.7777777778 246.1111098589)" id="2lHSLvUfJAXTUjLd6lC5j"  >
<path style="stroke: rgb(0,0,0); stroke-width: 0; stroke-dasharray: none; stroke-linecap: butt; stroke-dashoffset: 0; stroke-linejoin: miter; stroke-miterlimit: 4; fill: rgb(0,0,0); fill-rule: nonzero; opacity: 1;" vector-effect="non-scaling-stroke"  transform=" translate(0.000005, 0.000005)" d="M -72.96297 -72.96297 L 72.96296 -72.96297 L 72.96296 72.96296 L -72.96297 72.96296 z" stroke-linecap="round" />
</g>
<g transform="matrix(0.2030456907 0 0 1.926395899 319.2592592593 246.1111098589)" id="Ig6U8w9SsWIR1cCzz0oJI"  >
<path style="stroke: rgb(0,0,0); stroke-width: 0; stroke-dasharray: none; stroke-linecap: butt; stroke-dashoffset: 0; stroke-linejoin: miter; stroke-miterlimit: 4; fill: rgb(0,0,0); fill-rule: nonzero; opacity: 1;" vector-effect="non-scaling-stroke"  transform=" translate(0.000005, 0.000005)" d="M -72.96297 -72.96297 L 72.96296 -72.96297 L 72.96296 72.96296 L -72.96297 72.96296 z" stroke-linecap="round" />
</g>
</svg>